<?xml version="1.0" standalone="no"?>
<!DOCTYPE svg PUBLIC "-//W3C//DTD SVG 20010904//EN"
 "http://www.w3.org/TR/2001/REC-SVG-20010904/DTD/svg10.dtd">
<svg version="1.0" xmlns="http://www.w3.org/2000/svg"
 width="90.000000pt" height="90.000000pt" viewBox="0 0 90.000000 90.000000"
 preserveAspectRatio="xMidYMid meet">

<g transform="translate(0.000000,90.000000) scale(0.100000,-0.100000)"
fill="#000000" stroke="none">
<path d="M145 869 c-55 -29 -91 -65 -115 -114 -18 -38 -20 -62 -20 -303 0
-289 2 -299 61 -367 63 -71 80 -75 379 -75 236 0 269 2 306 19 48 22 111 92
125 141 6 22 9 136 7 302 l-3 266 -30 44 c-17 23 -51 56 -75 73 l-45 30 -275
3 c-264 2 -277 2 -315 -19z m399 -210 c47 -28 86 -55 86 -59 0 -4 -18 -13 -39
-20 -36 -12 -42 -11 -67 9 -39 31 -114 29 -145 -3 -22 -23 -26 -24 -56 -11
-19 8 -37 14 -40 14 -4 0 -9 3 -10 8 -3 8 162 112 179 113 3 0 45 -23 92 -51z
m-248 -173 c6 -35 0 -56 -17 -56 -5 0 -9 20 -9 45 0 53 16 60 26 11z"/>
</g>
</svg>
